<svg width="512" height="124" xmlns="http://www.w3.org/2000/svg" preserveAspectRatio="xMidYMid" version="1.1">

 <g>
  <title>Layer 1</title>
  <g id="svg_1">
   <path id="svg_2" fill-rule="nonzero" fill="#ffffff" d="m177.35948,75.60386c-8.43876,0 -13.09463,-5.38334 -11.93067,-13.09463c1.30947,-7.85677 7.71129,-13.09463 16.00455,-13.09463c4.36488,0 8.29327,2.03695 10.6212,5.09236l8.14777,-6.69281c-4.36488,-4.94686 -10.6212,-7.42029 -17.31401,-7.42029c-13.67661,0 -25.60727,9.16624 -27.64422,22.11537c-2.03694,13.09463 6.69281,22.11538 20.51492,22.11538c6.98381,0 13.96761,-2.90992 20.07843,-7.71128l-5.81983,-6.69281c-4.21938,3.78289 -8.58426,5.38334 -12.65814,5.38334m54.70645,-34.77351c0,0 -1.74595,-0.29099 -1.89145,-0.29099c-1.89144,-0.291 -3.92839,-0.1455 -5.81983,0c-1.74595,0.14549 -3.4919,0.43648 -5.23786,1.01847c-1.45495,0.43649 -3.05541,1.01847 -4.36487,1.89144l0.29099,-2.03694l-9.89372,0l-6.69281,42.19381l9.89372,0l3.92839,-24.58881c0.14549,-1.45496 0.72748,-2.76442 1.45496,-3.92839c0.72748,-1.16396 1.74595,-2.18243 2.90991,-2.90991c1.16397,-0.87298 2.32794,-1.45496 3.6374,-1.89145c1.30947,-0.43649 2.61893,-0.72748 4.07389,-0.87298c1.89144,-0.14549 3.92839,0 5.81983,0.43649c0,0 0.1455,0 0.1455,0c0.29099,0 1.74595,-9.02074 1.74595,-9.02074m34.62802,3.20091c-2.76442,-2.32794 -6.9838,-3.6374 -11.93066,-3.6374c-12.36715,0 -23.57034,8.87525 -25.75278,21.96988c-2.03694,13.09463 6.54732,21.96988 18.47798,21.96988c5.38335,0 9.89372,-0.72748 13.67661,-3.34641l-0.29099,2.32794l9.02075,0l6.54731,-41.90282l-9.31174,0l-0.43648,2.61893zm-2.03694,18.33248l0,0c-1.30947,8.00227 -7.2748,13.53112 -14.98608,13.53112c-7.85678,0 -12.36715,-5.81984 -11.05769,-13.67662c1.30947,-7.85678 7.56579,-13.38562 15.27707,-13.38562c7.71128,0.1455 11.93066,5.52884 10.7667,13.53112l0,0zm57.47087,-20.95141l1.89144,-11.93066l-11.34867,8.14777l-0.58199,3.92839l-12.80363,0l1.30946,-8.00228c0.72748,-3.78289 4.80136,-3.63739 4.80136,-3.63739l4.80137,0l1.45495,-8.72976l-5.52884,0l-1.30946,0c-13.53112,0 -13.96761,10.47571 -13.96761,10.47571l-0.87297,4.94686l-0.72748,4.94686l-0.87298,0l-11.05768,8.72975l10.4757,0l-6.69281,42.63029l10.18471,0l6.69281,-42.77579l12.80364,0l-5.23785,33.46406l10.03921,0l5.23786,-33.46406l12.51264,0l1.45496,-8.72975l-12.65814,0zm26.91674,21.0969c2.03694,-12.94913 13.8221,-22.11537 27.64421,-22.11537c6.69281,0 12.94914,2.61893 17.31401,7.42029l-8.14777,6.69281c-2.32793,-3.05541 -6.25632,-5.09236 -10.62119,-5.09236c-8.29327,0 -14.69509,5.38335 -16.00455,13.09463c-1.16397,7.71129 3.4919,13.09463 11.93066,13.09463c4.07389,0 8.43876,-1.60045 12.65814,-5.38334l5.81984,6.69281c-6.11083,4.94686 -13.09463,7.71128 -20.07844,7.71128c-13.8221,0 -22.55186,-9.02075 -20.51491,-22.11538m117.85166,-4.51037l-3.92839,25.60728l-9.89372,0l3.92839,-24.8798c1.01847,-5.81983 -2.18244,-9.31174 -7.85678,-9.31174c-5.96533,0 -11.93066,3.6374 -12.80364,9.60273l-3.92839,24.58881l-9.89371,0l3.92838,-24.8798c0.87298,-5.67434 -2.47343,-9.16624 -7.85677,-9.31174c-5.52885,0.291 -11.93067,3.7829 -12.80364,9.60273l-3.92839,24.58881l-9.89372,0l6.69281,-42.19381l9.89372,0l-0.29099,2.03694c3.3464,-2.03694 7.1293,-2.90991 11.93066,-3.05541l0.87298,0c6.11082,0 11.05768,2.47343 13.67661,6.69281c4.07388,-4.21938 10.33021,-6.69281 16.58653,-6.69281c10.7667,0 17.31401,7.1293 15.56806,17.605m-0.43649,20.51492l6.11083,-7.56578c3.3464,2.61892 9.74822,4.65586 15.13157,4.65586c4.94686,0 9.89372,-1.01847 10.4757,-4.36487c0.43649,-2.61893 -4.36487,-3.4919 -9.74822,-4.36488c-11.20319,-1.89145 -16.87752,-4.21938 -15.71356,-12.65814c1.74595,-10.6212 12.65814,-13.67661 21.67889,-13.67661c6.40182,0 13.09463,2.18243 17.605,5.23785l-6.11082,7.56578c-3.49191,-2.18243 -8.00228,-3.78289 -13.09464,-3.78289c-5.96533,0 -9.45723,1.74595 -9.89371,4.51037c-0.291,1.89145 1.30946,2.61893 8.29326,3.7829c10.18471,1.74595 18.62347,3.3464 17.02302,13.09463c-1.30946,8.87524 -10.33021,13.8221 -22.11537,13.8221c-6.54732,-0.14549 -14.98608,-2.47343 -19.64195,-6.25632m-355.15544,-78.71327l-98.20972,0c-7.27479,0 -13.09463,5.81984 -13.09463,13.09463l0,98.20972c0,7.27479 5.81984,13.09463 13.09463,13.09463l98.20972,0c7.1293,0 13.09463,-5.81984 13.09463,-13.09463l0,-98.20972c0,-7.27479 -5.81984,-13.09463 -13.09463,-13.09463m-49.32311,75.80335c4.07389,0 8.43877,-1.60045 12.65815,-5.38334l5.81983,6.69281c-6.11083,4.94686 -13.09463,7.71128 -20.07843,7.71128c-13.82211,0 -22.55186,-9.16624 -20.51492,-22.11538c2.03694,-12.94913 13.82211,-22.11537 27.64422,-22.11537c6.69281,0 12.94913,2.61893 17.31401,7.42029l-8.14777,6.69281c-2.32794,-3.05541 -6.25632,-5.09236 -10.6212,-5.09236c-8.29327,0 -14.69508,5.38335 -16.00455,13.09463c-1.16396,7.71129 3.4919,13.09463 11.93066,13.09463"/>
  </g>
 </g>
</svg>