<!DOCTYPE svg PUBLIC "-//W3C//DTD SVG 1.1//EN" "http://www.w3.org/Graphics/SVG/1.1/DTD/svg11.dtd">
<!-- Uploaded to: SVG Repo, www.svgrepo.com, Transformed by: SVG Repo Mixer Tools -->
<svg fill="#ffffff" height="800px" width="800px" version="1.1" id="Layer_1" xmlns="http://www.w3.org/2000/svg" xmlns:xlink="http://www.w3.org/1999/xlink" viewBox="0 0 512 512" xml:space="preserve" stroke="#ffffff">
<g id="SVGRepo_bgCarrier" stroke-width="0"/>
<g id="SVGRepo_tracerCarrier" stroke-linecap="round" stroke-linejoin="round"/>
<g id="SVGRepo_iconCarrier"> <g> <g> <path d="M446.045,244.87c-5.592-97.391-81.523-173.322-178.914-178.914V0H244.87v65.955 C150.261,71.548,74.33,147.478,68.738,244.87H0v22.261h68.738c5.592,94.609,81.523,170.539,176.132,176.132V512h22.261v-68.738 c97.391-5.592,173.322-81.523,178.914-176.132H512V244.87H446.045z M244.87,421.001c-80.696-5.526-148.345-73.175-153.871-153.871 H244.87V421.001z M244.87,244.87H90.999c5.526-83.478,73.175-151.128,153.871-156.654V244.87z M267.13,421.001V267.13h156.654 C418.258,347.826,350.609,415.475,267.13,421.001z M267.13,244.87V88.216c83.478,5.526,151.128,73.175,156.654,156.654H267.13z"/> </g> </g> </g>
</svg>