<!DOCTYPE svg PUBLIC "-//W3C//DTD SVG 1.1//EN" "http://www.w3.org/Graphics/SVG/1.1/DTD/svg11.dtd">
<!-- Uploaded to: SVG Repo, www.svgrepo.com, Transformed by: SVG Repo Mixer Tools -->
<svg fill="#ffffff" height="800px" width="800px" version="1.1" id="Layer_1" xmlns="http://www.w3.org/2000/svg" xmlns:xlink="http://www.w3.org/1999/xlink" viewBox="0 0 512 512" xml:space="preserve">
<g id="SVGRepo_bgCarrier" stroke-width="0"/>
<g id="SVGRepo_tracerCarrier" stroke-linecap="round" stroke-linejoin="round"/>
<g id="SVGRepo_iconCarrier"> <g> <g> <path d="M509.107,130.133l-145.067-128c-1.741-1.536-3.968-2.236-6.101-2.116L8.533,0C6.263,0,4.096,0.896,2.5,2.5 C0.905,4.105,0,6.263,0,8.533v358.4c0,4.719,3.814,8.533,8.533,8.533h179.2c0.205,0,0.384-0.102,0.58-0.119 c18.765,20.966,45.935,34.253,76.22,34.253c13.909,0,27.179-2.816,39.279-7.859l90.735,107.238 c1.63,1.911,4.011,3.021,6.519,3.021c27.844,0,42.667-19.823,42.667-34.133c0-2.014-0.717-3.977-2.014-5.513l-81.988-96.888 h143.735c4.719,0,8.533-3.814,8.533-8.533v-230.4C512,134.084,510.95,131.755,509.107,130.133z M366.933,27.443L480.896,128 H366.933V27.443z M264.533,392.533c-47.053,0-85.333-38.281-85.333-85.333s38.281-85.333,85.333-85.333 s85.333,38.281,85.333,85.333S311.586,392.533,264.533,392.533z M426.18,480.427c-1.638,5.009-7.697,13.047-21.308,14.336 l-85.598-101.171c7.228-4.599,13.824-10.061,19.678-16.265L426.18,480.427z M494.933,358.4h-141.85 c8.755-15.078,13.85-32.538,13.85-51.2c0-56.465-45.935-102.4-102.4-102.4c-56.465,0-102.4,45.935-102.4,102.4 c0,18.662,5.094,36.122,13.85,51.2H17.067V17.067l332.8,0.017v119.45c0,4.719,3.814,8.533,8.533,8.533h136.533V358.4z"/> </g> </g> </g>
</svg>