<!DOCTYPE svg PUBLIC "-//W3C//DTD SVG 1.1//EN" "http://www.w3.org/Graphics/SVG/1.1/DTD/svg11.dtd">
<!-- Uploaded to: SVG Repo, www.svgrepo.com, Transformed by: SVG Repo Mixer Tools -->
<svg width="800px" height="800px" viewBox="0 0 24 24" fill="none" xmlns="http://www.w3.org/2000/svg">
<g id="SVGRepo_bgCarrier" stroke-width="0"/>
<g id="SVGRepo_tracerCarrier" stroke-linecap="round" stroke-linejoin="round"/>
<g id="SVGRepo_iconCarrier"> <path d="M8 20H6C4.89543 20 4 19.1046 4 18V6C4 4.89543 4.89543 4 6 4H9M8 20V14C8 13.4477 8.44772 13 9 13H15C15.5523 13 16 13.4477 16 14V20M8 20H16M16 20H18C19.1046 20 20 19.1046 20 18V8.82843C20 8.29799 19.7893 7.78929 19.4142 7.41421L16.5858 4.58579C16.2107 4.21071 15.702 4 15.1716 4H15M15 4V7C15 7.55228 14.5523 8 14 8H10C9.44772 8 9 7.55228 9 7V4M15 4H9" stroke="#ffffff" stroke-width="2" stroke-linecap="round" stroke-linejoin="round"/> </g>
</svg>